<?xml version="1.0" standalone="no"?>
<!DOCTYPE svg PUBLIC "-//W3C//DTD SVG 20010904//EN"
 "http://www.w3.org/TR/2001/REC-SVG-20010904/DTD/svg10.dtd">
<svg version="1.0" xmlns="http://www.w3.org/2000/svg"
 width="671.000000pt" height="671.000000pt" viewBox="0 0 671.000000 671.000000"
 preserveAspectRatio="xMidYMid meet">
<metadata>
Created by potrace 1.11, written by Peter Selinger 2001-2013
</metadata>
<g transform="translate(0.000000,671.000000) scale(0.100000,-0.100000)"
fill="#000000" stroke="none">
<path d="M872 4202 l-872 -875 845 -844 844 -843 321 321 321 321 27 -27 c71
-72 239 -185 354 -238 131 -62 248 -99 400 -128 74 -14 359 -20 421 -9 23 5
60 11 82 14 40 6 157 33 185 44 8 3 20 6 25 7 17 5 117 45 172 70 74 34 217
125 289 183 l62 50 304 -304 304 -304 877 876 877 877 -421 421 c-232 232
-612 611 -845 844 l-423 422 -320 -321 -321 -320 -24 24 c-34 34 -130 107
-196 150 -183 116 -369 185 -594 221 -87 13 -361 15 -416 2 -13 -3 -42 -8 -65
-12 -212 -30 -478 -153 -669 -309 l-54 -43 -303 304 c-167 167 -306 303 -309
302 -3 -1 -398 -395 -878 -876z"/>
</g>
</svg>
