<?xml version="1.0" encoding="UTF-8" standalone="no"?><svg xmlns="http://www.w3.org/2000/svg" xmlns:xlink="http://www.w3.org/1999/xlink" contentScriptType="application/ecmascript" contentStyleType="text/css" height="69px" preserveAspectRatio="none" style="width:804px;height:69px;" version="1.1" viewBox="0 0 804 69" width="804px" zoomAndPan="magnify"><defs><filter height="300%" id="fsjqsxaat3tdb" width="300%" x="-1" y="-1"><feGaussianBlur result="blurOut" stdDeviation="2.0"/><feColorMatrix in="blurOut" result="blurOut2" type="matrix" values="0 0 0 0 0 0 0 0 0 0 0 0 0 0 0 0 0 0 .4 0"/><feOffset dx="4.0" dy="4.0" in="blurOut2" result="blurOut3"/><feBlend in="SourceGraphic" in2="blurOut3" mode="normal"/></filter></defs><g><!--entity file--><polygon fill="#FEFECE" filter="url(#fsjqsxaat3tdb)" points="741.5,8,741.5,44.29,782.5,44.29,782.5,18,772.5,8,741.5,8" style="stroke: #000000; stroke-width: 1.5;"/><path d="M772.5,8 L772.5,18 L782.5,18 " fill="#FEFECE" style="stroke: #000000; stroke-width: 1.5;"/><text fill="#000000" font-family="sans-serif" font-size="14" lengthAdjust="spacingAndGlyphs" textLength="21" x="751.5" y="31.3027">file</text><!--entity filesystem--><rect fill="#FEFECE" filter="url(#fsjqsxaat3tdb)" height="32.29" style="stroke: #000000; stroke-width: 1.5;" width="84" x="10" y="12"/><rect fill="#FEFECE" height="32.29" style="stroke: #000000; stroke-width: 1.5;" width="84" x="6" y="8"/><text fill="#000000" font-family="sans-serif" font-size="14" lengthAdjust="spacingAndGlyphs" textLength="68" x="14" y="29.3027">filesystem</text><!--entity DirectoryList--><ellipse cx="227" cy="26" fill="#FEFECE" filter="url(#fsjqsxaat3tdb)" rx="8" ry="8" style="stroke: #A80036; stroke-width: 2.0;"/><text fill="#000000" font-family="sans-serif" font-size="14" lengthAdjust="spacingAndGlyphs" textLength="85" x="184.5" y="56.3027">DirectoryList</text><!--entity CSVFileWriter--><ellipse cx="469" cy="26" fill="#FEFECE" filter="url(#fsjqsxaat3tdb)" rx="8" ry="8" style="stroke: #A80036; stroke-width: 2.0;"/><text fill="#000000" font-family="sans-serif" font-size="14" lengthAdjust="spacingAndGlyphs" textLength="92" x="423" y="56.3027">CSVFileWriter</text><!--link filesystem to DirectoryList--><path d="M94.208,26 C133.0476,26 187.222,26 212.6926,26 " fill="none" id="filesystem-DirectoryList" style="stroke: #A80036; stroke-width: 1.0;"/><polygon fill="#A80036" points="217.9601,26,208.9601,22,212.9601,26,208.9601,30,217.9601,26" style="stroke: #A80036; stroke-width: 1.0;"/><text fill="#000000" font-family="sans-serif" font-size="13" lengthAdjust="spacingAndGlyphs" textLength="87" x="112.5" y="19.3525">directory files</text><!--link DirectoryList to CSVFileWriter--><path d="M236.1912,26 C272.9522,26 409.5793,26 454.5478,26 " fill="none" id="DirectoryList-CSVFileWriter" style="stroke: #A80036; stroke-width: 1.0;"/><polygon fill="#A80036" points="459.7997,26,450.7997,22,454.7997,26,450.7997,30,459.7997,26" style="stroke: #A80036; stroke-width: 1.0;"/><text fill="#000000" font-family="sans-serif" font-size="13" lengthAdjust="spacingAndGlyphs" textLength="187" x="254.5" y="19.3525">1 message per directory entry</text><!--link CSVFileWriter to file--><path d="M478.0902,26 C517.4557,26 674.0345,26 736.2857,26 " fill="none" id="CSVFileWriter-file" style="stroke: #A80036; stroke-width: 1.0;"/><polygon fill="#A80036" points="741.3075,26,732.3075,22,736.3075,26,732.3075,30,741.3075,26" style="stroke: #A80036; stroke-width: 1.0;"/><text fill="#000000" font-family="sans-serif" font-size="13" lengthAdjust="spacingAndGlyphs" textLength="227" x="496.25" y="19.3525">CSV header and 1 rows per message</text><!--
@startuml
file file
collections filesystem
filesystem -> DirectoryList: directory files
DirectoryList -> CSVFileWriter: 1 message per directory entry
CSVFileWriter -> file: CSV header and 1 rows per message
@enduml

PlantUML version 1.2018.05(Sat May 05 20:00:17 GMT 2018)
(GPL source distribution)
Java Runtime: Java(TM) SE Runtime Environment
JVM: Java HotSpot(TM) 64-Bit Server VM
Java Version: 1.8.0_161-b12
Operating System: Linux
OS Version: 4.4.0-141-generic
Default Encoding: ANSI_X3.4-1968
Language: en
Country: US
--></g></svg>